<svg xmlns="http://www.w3.org/2000/svg" viewBox="0 0 500 500"><g id="hearts"><circle cx="250" cy="250.00008" r="224.99997" style="fill:#ffc048"/><path d="M80.47365,236.95371h65.65266a23.33049,23.33049,0,0,1,3.42443.177,9.0477,9.0477,0,0,1,2.47956.886,4.07828,4.07828,0,0,1,2.0074,2.59773,17.08883,17.08883,0,0,1,.59042,4.9592,16.45939,16.45939,0,0,1-.59042,4.90034,4.05361,4.05361,0,0,1-2.0074,2.53888,8.93477,8.93477,0,0,1-2.53887.88548,24.61129,24.61129,0,0,1-3.4833.177h-22.553v59.39418a32.67977,32.67977,0,0,1-.17742,4.01479,9.55477,9.55477,0,0,1-1.06259,3.011,5.005,5.005,0,0,1-3.12922,2.4207,20.13914,20.13914,0,0,1-5.904.70852,19.512,19.512,0,0,1-5.84475-.70852,4.981,4.981,0,0,1-3.07037-2.4207,9.5167,9.5167,0,0,1-1.06257-3.06991,34.27064,34.27064,0,0,1-.17706-4.07371v-59.2764H80.35555a23.43,23.43,0,0,1-3.36519-.177,8.91913,8.91913,0,0,1-2.53888-.88548,4.07192,4.07192,0,0,1-2.00739-2.59782,17.02075,17.02075,0,0,1-.59035-4.95958,16.42584,16.42584,0,0,1,.59035-4.90034,4.05344,4.05344,0,0,1,2.00739-2.53841,8.90691,8.90691,0,0,1,2.53888-.886A24.63356,24.63356,0,0,1,80.47365,236.95371Z" style="fill:#40407a"/><path d="M195.60049,261.63275a25.04749,25.04749,0,0,1,19.66052,8.9739q7.851,8.97486,7.85207,21.96274v20.78236a34.2797,34.2797,0,0,1-.177,4.07371,9.51776,9.51776,0,0,1-1.06259,3.06991,5.00624,5.00624,0,0,1-3.12923,2.4207,20.64679,20.64679,0,0,1-6.02217.70852,19.517,19.517,0,0,1-5.84514-.70852,5.21566,5.21566,0,0,1-3.12884-2.4207,8.86013,8.86013,0,0,1-1.12183-3.12884,37.32485,37.32485,0,0,1-.177-4.25106v-20.6638a10.21982,10.21982,0,0,0-2.71591-7.55739,9.43568,9.43568,0,0,0-6.96659-2.71591,11.42464,11.42464,0,0,0-7.321,2.53887,9.04718,9.04718,0,0,0-3.66071,5.727v22.90748a34.25856,34.25856,0,0,1-.177,4.07371,9.51546,9.51546,0,0,1-1.06251,3.06991,5.00521,5.00521,0,0,1-3.12931,2.4207,20.64582,20.64582,0,0,1-6.02209.70852,20.1241,20.1241,0,0,1-5.90408-.70852,4.95263,4.95263,0,0,1-3.12922-2.47956,10.19147,10.19147,0,0,1-1.06252-3.07,34.07221,34.07221,0,0,1-.177-4.13288V242.62181a34.307,34.307,0,0,1,.177-4.0741,9.548,9.548,0,0,1,1.06252-3.0699A5.00857,5.00857,0,0,1,165.49,233.0571a20.63217,20.63217,0,0,1,6.02218-.70852,20.14052,20.14052,0,0,1,5.904.70852,4.956,4.956,0,0,1,3.12931,2.47955,10.14393,10.14393,0,0,1,1.06251,3.12924,34.30074,34.30074,0,0,1,.177,4.07364v26.09608Q187.68845,261.63432,195.60049,261.63275Z" style="fill:#40407a"/><path d="M283.21456,261.39639a20.15663,20.15663,0,0,1,5.90522.70852,4.957,4.957,0,0,1,3.12923,2.47957,10.12381,10.12381,0,0,1,1.06136,3.1293,34.01171,34.01171,0,0,1,.17742,4.07364v41.32805a33.96956,33.96956,0,0,1-.17742,4.07364,9.50577,9.50577,0,0,1-1.06136,3.07037,5.00682,5.00682,0,0,1-3.12923,2.42031,20.6436,20.6436,0,0,1-6.023.70853q-5.31322,0-7.49761-1.59409a6.36882,6.36882,0,0,1-2.53888-4.664q-4.36989,6.26038-14.16945,6.25808-10.62773,0-19.36539-9.32805a30.9237,30.9237,0,0,1-8.73809-21.84495,30.20351,30.20351,0,0,1,8.79741-21.43164q8.79505-9.26823,19.30607-9.26911a18.39827,18.39827,0,0,1,7.32065,1.41705,16.27718,16.27718,0,0,1,4.60513,2.65659,16.51419,16.51419,0,0,1,2.12549,2.4207,6.79427,6.79427,0,0,1,2.53888-4.95958Q277.66436,261.39762,283.21456,261.39639ZM262.0789,302.72444a9.26573,9.26573,0,0,0,7.14362-3.18808,10.30176,10.30176,0,0,0,2.893-7.08469,10.84352,10.84352,0,0,0-2.77477-7.08515,9.287,9.287,0,0,0-7.49808-3.30625,9.50273,9.50273,0,0,0-7.49807,3.30625,10.71881,10.71881,0,0,0-2.89295,7.20287,9.79205,9.79205,0,0,0,3.07,7.02583A10.168,10.168,0,0,0,262.0789,302.72444Z" style="fill:#40407a"/><path d="M337.53091,261.39639a24.97568,24.97568,0,0,1,19.661,9.03322q7.85172,9.03268,7.85215,22.02206v20.782a34.15719,34.15719,0,0,1-.17742,4.07364,9.50568,9.50568,0,0,1-1.06221,3.0699,5.00613,5.00613,0,0,1-3.12922,2.42078,20.63738,20.63738,0,0,1-6.02218.70852,18.29469,18.29469,0,0,1-5.07775-.59042,10.21868,10.21868,0,0,1-3.06953-1.35773,4.59385,4.59385,0,0,1-1.59446-2.4207,11.34442,11.34442,0,0,1-.59035-2.71591q-.06093-1.06278-.05885-3.30626v-20.782a10.09631,10.09631,0,0,0-2.77524-7.5574,11.51841,11.51841,0,0,0-14.99607.11818,9.94388,9.94388,0,0,0-2.893,7.43922v20.90015a34.36048,34.36048,0,0,1-.17665,4.07364,9.52782,9.52782,0,0,1-1.063,3.0699A5.00611,5.00611,0,0,1,319.229,322.798a20.63738,20.63738,0,0,1-6.02218.70852,20.106,20.106,0,0,1-5.90361-.70852,4.95051,4.95051,0,0,1-3.12922-2.47964,10.11932,10.11932,0,0,1-1.063-3.12922,34.336,34.336,0,0,1-.17742-4.07364V271.31516a33.03594,33.03594,0,0,1,.17742-3.95591,8.38868,8.38868,0,0,1,1.12184-3.011,5.09569,5.09569,0,0,1,3.18816-2.3026,21.90657,21.90657,0,0,1,5.90361-.64921,19.64208,19.64208,0,0,1,5.78666.70852,5.26784,5.26784,0,0,1,3.06952,2.06625,7.32764,7.32764,0,0,1,1.00412,2.30261,14.02664,14.02664,0,0,1,.17658,2.47956,8.079,8.079,0,0,1,.65-.82624q.41177-.47075,1.77111-1.7715a20.05769,20.05769,0,0,1,2.89295-2.30261,17.78938,17.78938,0,0,1,3.95508-1.82989A15.10524,15.10524,0,0,1,337.53091,261.39639Z" style="fill:#40407a"/><path d="M411.0937,292.45167l15.70506,12.98869q1.53354,1.30041,2.30261,2.00739a8.58341,8.58341,0,0,1,1.4759,1.88929,4.55819,4.55819,0,0,1,.70891,2.36138q0,2.83383-3.66072,7.67511-4.01605,4.95939-7.55693,4.95959-2.48,0-6.25845-3.06991l-.47263-.35454-1.18077-.82661q-2.71749-2.24121-8.38356-7.85215-5.66775-5.6067-8.61991-7.97024v9.09208a34.36183,34.36183,0,0,1-.17665,4.07371,9.52869,9.52869,0,0,1-1.063,3.06991,5.00605,5.00605,0,0,1-3.12923,2.4207,20.65042,20.65042,0,0,1-6.02217.70852,20.11879,20.11879,0,0,1-5.90361-.70852,4.95045,4.95045,0,0,1-3.12923-2.47956,10.11781,10.11781,0,0,1-1.063-3.12922,34.3419,34.3419,0,0,1-.17741-4.07364v-70.73a34.39233,34.39233,0,0,1,.17741-4.074,10.13364,10.13364,0,0,1,1.063-3.12884,4.95045,4.95045,0,0,1,3.12923-2.47956,20.612,20.612,0,0,1,6.02132-.70852,18.51163,18.51163,0,0,1,5.0189.59033,8.65994,8.65994,0,0,1,3.07037,1.41706,5.16132,5.16132,0,0,1,1.53476,2.42024,10.7014,10.7014,0,0,1,.59042,2.71591q.05841,1.12373.05886,3.36558v37.43106q2.12558-1.77114,6.4351-6.02179,4.30953-4.251,6.43587-6.02217l1.41705-.9448q4.13169-3.18765,6.49395-3.18809,3.54219,0,7.32143,4.60514,3.89661,4.95939,3.89622,7.675,0,2.71818-4.36885,6.37663Z" style="fill:#40407a"/><path d="M220.398,344.59029q5.78409,4.01537,5.7859,7.79321,0,2.24431-2.71592,6.25807l-25.50527,38.14v22.55308a34.259,34.259,0,0,1-.177,4.074,9.4702,9.4702,0,0,1-1.12183,3.12923,5.187,5.187,0,0,1-3.18809,2.47964,25.94742,25.94742,0,0,1-12.04434,0,5.12277,5.12277,0,0,1-3.18816-2.53888,9.9973,9.9973,0,0,1-1.12184-3.18816,35.7645,35.7645,0,0,1-.177-4.19174V396.78154l-25.50528-38.14q-2.71749-4.01295-2.71583-6.25807,0-3.77784,5.904-7.79321,4.48611-2.95014,7.43914-2.95226a4.9842,4.9842,0,0,1,2.893.94486,10.405,10.405,0,0,1,2.12557,1.88923q.76677.94646,2.06625,2.9518l18.30241,29.28417,18.30234-29.28417q1.29786-2.00612,2.06671-2.9518a10.30126,10.30126,0,0,1,2.1251-1.88923,5.15352,5.15352,0,0,1,3.01113-.94486Q215.67393,341.638,220.398,344.59029Z" style="fill:#40407a"/><path d="M249.0906,365.84443a32.36747,32.36747,0,0,1,22.78936,9.1514q9.8,9.152,9.80061,23.32085a30.67471,30.67471,0,0,1-5.0773,17.41647,31.83238,31.83238,0,0,1-12.33948,11.21765,33.23307,33.23307,0,0,1-14.93691,3.60147,32.38669,32.38669,0,0,1-15.23243-3.83736A33.48505,33.48505,0,0,1,221.755,415.37908a29.7571,29.7571,0,0,1-5.01852-16.94461q0-14.16933,9.91886-23.37978T249.0906,365.84443Zm-7.67511,41.03292a12.53762,12.53762,0,0,0,7.67511,2.893,12.874,12.874,0,0,0,7.79321-2.95181q3.89672-2.95015,3.89668-8.73808,0-5.784-3.66033-8.61992a12.99169,12.99169,0,0,0-8.14774-2.83408,12.07238,12.07238,0,0,0-7.67511,2.95226q-3.66152,2.95257-3.66025,8.61991Q237.63706,403.985,241.41549,406.87735Z" style="fill:#40407a"/><path d="M316.98529,429.2534a25.09144,25.09144,0,0,1-19.77793-9.03284q-7.85415-9.03325-7.85291-22.022V377.53432a34.156,34.156,0,0,1,.17741-4.13249,10.19885,10.19885,0,0,1,1.063-3.07037,4.9507,4.9507,0,0,1,3.12923-2.47964,20.62911,20.62911,0,0,1,6.0214-.70852,18.37193,18.37193,0,0,1,5.07776.59035,9.4012,9.4012,0,0,1,3.07037,1.417,4.9457,4.9457,0,0,1,1.59361,2.42078,10.659,10.659,0,0,1,.59035,2.71584q.05851,1.12371.0597,3.36519v20.66418a10.08308,10.08308,0,0,0,2.77439,7.55694,11.5183,11.5183,0,0,0,14.99608-.1181,9.947,9.947,0,0,0,2.89294-7.43884V377.41615a34.19976,34.19976,0,0,1,.17742-4.07364,9.54338,9.54338,0,0,1,1.063-3.07,5.00717,5.00717,0,0,1,3.12846-2.42071,20.63843,20.63843,0,0,1,6.02217-.70852,20.14686,20.14686,0,0,1,5.90438.70852,4.95683,4.95683,0,0,1,3.12922,2.47964,10.12766,10.12766,0,0,1,1.06221,3.12923,34.19968,34.19968,0,0,1,.17742,4.07363v41.8003a32.81679,32.81679,0,0,1-.17742,3.95585,8.40442,8.40442,0,0,1-1.12106,3.01113,5.31606,5.31606,0,0,1-3.18893,2.36146,20.124,20.124,0,0,1-5.90361.70844,19.61534,19.61534,0,0,1-5.78582-.70844,5.13772,5.13772,0,0,1-3.07037-2.12519,7.84985,7.84985,0,0,1-1.00327-2.36184,13.90191,13.90191,0,0,1-.1775-2.47956,8.417,8.417,0,0,1-.6492.82662q-.41535.47328-1.771,1.77111a20.04328,20.04328,0,0,1-2.89295,2.30253,18.03428,18.03428,0,0,1-3.89707,1.83043A14.55037,14.55037,0,0,1,316.98529,429.2534Z" style="fill:#40407a"/><path d="M77.33489,236.95371h65.65263a23.331,23.331,0,0,1,3.42446.177,9.04793,9.04793,0,0,1,2.47956.886,4.07849,4.07849,0,0,1,2.00739,2.59773,17.08878,17.08878,0,0,1,.59035,4.9592,16.45936,16.45936,0,0,1-.59035,4.90034,4.05382,4.05382,0,0,1-2.00739,2.53888,8.93492,8.93492,0,0,1-2.53888.88548,24.61155,24.61155,0,0,1-3.48331.177h-22.553v59.39418a32.6638,32.6638,0,0,1-.1775,4.01479,9.55259,9.55259,0,0,1-1.06251,3.011,5.005,5.005,0,0,1-3.12923,2.4207,20.13934,20.13934,0,0,1-5.90407.70852,19.5118,19.5118,0,0,1-5.84468-.70852,4.981,4.981,0,0,1-3.07037-2.4207,9.51824,9.51824,0,0,1-1.06259-3.06991,34.2612,34.2612,0,0,1-.177-4.07371v-59.2764H77.21671a23.42884,23.42884,0,0,1-3.36512-.177,8.919,8.919,0,0,1-2.53888-.88548,4.072,4.072,0,0,1-2.00739-2.59782,17.01839,17.01839,0,0,1-.59034-4.95958,16.42359,16.42359,0,0,1,.59034-4.90034,4.0535,4.0535,0,0,1,2.00739-2.53841,8.90681,8.90681,0,0,1,2.53888-.886A24.63363,24.63363,0,0,1,77.33489,236.95371Z" style="fill:#a176d1"/><path d="M192.46164,261.63275a25.04762,25.04762,0,0,1,19.6606,8.9739q7.851,8.97486,7.85207,21.96274v20.78236a34.2797,34.2797,0,0,1-.177,4.07371,9.51727,9.51727,0,0,1-1.06259,3.06991,5.00622,5.00622,0,0,1-3.12922,2.4207,20.64691,20.64691,0,0,1-6.02218.70852,19.51647,19.51647,0,0,1-5.84513-.70852,5.21563,5.21563,0,0,1-3.12884-2.4207,8.86037,8.86037,0,0,1-1.12184-3.12884,37.32536,37.32536,0,0,1-.177-4.25106v-20.6638a10.21978,10.21978,0,0,0-2.71592-7.55739,9.43592,9.43592,0,0,0-6.96659-2.71591,11.42468,11.42468,0,0,0-7.321,2.53887,9.04718,9.04718,0,0,0-3.66071,5.727v22.90748a34.2612,34.2612,0,0,1-.177,4.07371,9.51719,9.51719,0,0,1-1.06252,3.06991,5.00516,5.00516,0,0,1-3.1293,2.4207,20.64688,20.64688,0,0,1-6.02217.70852,20.12384,20.12384,0,0,1-5.904-.70852,4.95262,4.95262,0,0,1-3.12923-2.47956,10.19169,10.19169,0,0,1-1.06251-3.07,34.0696,34.0696,0,0,1-.177-4.13288V242.62181a34.30431,34.30431,0,0,1,.177-4.0741,9.54824,9.54824,0,0,1,1.06251-3.0699,5.00856,5.00856,0,0,1,3.12923-2.42071,20.63215,20.63215,0,0,1,6.02217-.70852,20.141,20.141,0,0,1,5.904.70852,4.956,4.956,0,0,1,3.1293,2.47955,10.14584,10.14584,0,0,1,1.06252,3.12924,34.30338,34.30338,0,0,1,.177,4.07364v26.09608Q184.54968,261.63432,192.46164,261.63275Z" style="fill:#a176d1"/><path d="M280.07618,261.39639a20.14737,20.14737,0,0,1,5.90445.70852,4.957,4.957,0,0,1,3.12923,2.47957,10.1281,10.1281,0,0,1,1.06213,3.1293,34.19433,34.19433,0,0,1,.17742,4.07364v41.32805a34.15177,34.15177,0,0,1-.17742,4.07364,9.50959,9.50959,0,0,1-1.06213,3.07037,5.00682,5.00682,0,0,1-3.12923,2.42031,20.638,20.638,0,0,1-6.02217.70853q-5.31392,0-7.49808-1.59409a6.36881,6.36881,0,0,1-2.53887-4.664q-4.36989,6.26038-14.16946,6.25808-10.62772,0-19.36539-9.32805a30.92369,30.92369,0,0,1-8.73808-21.84495,30.2035,30.2035,0,0,1,8.7974-21.43164q8.79507-9.26823,19.30607-9.26911a18.39768,18.39768,0,0,1,7.32058,1.41705,16.27683,16.27683,0,0,1,4.60521,2.65659,16.51478,16.51478,0,0,1,2.12549,2.4207,6.79424,6.79424,0,0,1,2.53888-4.95958Q274.52559,261.39762,280.07618,261.39639Zm-21.13605,41.32805a9.26577,9.26577,0,0,0,7.14363-3.18808,10.30176,10.30176,0,0,0,2.893-7.08469,10.84348,10.84348,0,0,0-2.77478-7.08515,9.287,9.287,0,0,0-7.49807-3.30625,9.50275,9.50275,0,0,0-7.49808,3.30625,10.71881,10.71881,0,0,0-2.893,7.20287,9.792,9.792,0,0,0,3.07,7.02583A10.168,10.168,0,0,0,258.94013,302.72444Z" style="fill:#a176d1"/><path d="M334.3926,261.39639a24.97564,24.97564,0,0,1,19.66091,9.03322q7.85172,9.03268,7.85215,22.02206v20.782a34.15719,34.15719,0,0,1-.17742,4.07364,9.50555,9.50555,0,0,1-1.06213,3.0699,5.00652,5.00652,0,0,1-3.1293,2.42078,20.63716,20.63716,0,0,1-6.0221.70852,18.29437,18.29437,0,0,1-5.07776-.59042,10.21919,10.21919,0,0,1-3.0696-1.35773,4.59385,4.59385,0,0,1-1.59446-2.4207,11.35229,11.35229,0,0,1-.59035-2.71591q-.06093-1.06278-.05885-3.30626v-20.782a10.09661,10.09661,0,0,0-2.77516-7.5574,11.51852,11.51852,0,0,0-14.99615.11818,9.94388,9.94388,0,0,0-2.89295,7.43922v20.90015a34.38174,34.38174,0,0,1-.17657,4.07364,9.52975,9.52975,0,0,1-1.063,3.0699,5.00652,5.00652,0,0,1-3.1293,2.42078,20.63738,20.63738,0,0,1-6.02218.70852,20.10542,20.10542,0,0,1-5.90353-.70852,4.95035,4.95035,0,0,1-3.12923-2.47964,10.1153,10.1153,0,0,1-1.063-3.12922,34.31475,34.31475,0,0,1-.1775-4.07364V271.31516a33.01545,33.01545,0,0,1,.1775-3.95591,8.38581,8.38581,0,0,1,1.12183-3.011,5.09557,5.09557,0,0,1,3.18808-2.3026,21.9067,21.9067,0,0,1,5.90362-.64921,19.64175,19.64175,0,0,1,5.78666.70852,5.2676,5.2676,0,0,1,3.06952,2.06625,7.32764,7.32764,0,0,1,1.00412,2.30261,14.02567,14.02567,0,0,1,.17665,2.47956,8.058,8.058,0,0,1,.65005-.82624q.41166-.47075,1.771-1.7715a20.06206,20.06206,0,0,1,2.89295-2.30261,17.78938,17.78938,0,0,1,3.95508-1.82989A15.10534,15.10534,0,0,1,334.3926,261.39639Z" style="fill:#a176d1"/><path d="M407.95455,292.45167l15.70506,12.98869q1.53354,1.30041,2.30253,2.00739a8.57865,8.57865,0,0,1,1.4759,1.88929,4.55832,4.55832,0,0,1,.709,2.36138q0,2.83383-3.66079,7.67511-4.016,4.95939-7.55694,4.95959-2.48,0-6.25845-3.06991l-.47263-.35454-1.18069-.82661q-2.71761-2.24121-8.38363-7.85215-5.66764-5.6067-8.61991-7.97024v9.09208a34.38044,34.38044,0,0,1-.17658,4.07371,9.52869,9.52869,0,0,1-1.063,3.06991,5.00605,5.00605,0,0,1-3.12923,2.4207,20.65116,20.65116,0,0,1-6.02217.70852,20.11846,20.11846,0,0,1-5.90361-.70852,4.95025,4.95025,0,0,1-3.12923-2.47956,10.11781,10.11781,0,0,1-1.063-3.12922,34.32069,34.32069,0,0,1-.17749-4.07364v-70.73a34.37109,34.37109,0,0,1,.17749-4.074,10.13364,10.13364,0,0,1,1.063-3.12884,4.95025,4.95025,0,0,1,3.12923-2.47956,20.612,20.612,0,0,1,6.02132-.70852,18.51163,18.51163,0,0,1,5.0189.59033,8.66063,8.66063,0,0,1,3.07037,1.41706,5.16255,5.16255,0,0,1,1.53476,2.42024,10.70131,10.70131,0,0,1,.59035,2.71591q.05851,1.12373.05886,3.36558v37.43106q2.12556-1.77114,6.4351-6.02179,4.30953-4.251,6.43594-6.02217l1.417-.9448q4.13169-3.18765,6.494-3.18809,3.54219,0,7.3215,4.60514,3.89661,4.95939,3.89622,7.675,0,2.71818-4.36885,6.37663Z" style="fill:#a176d1"/><path d="M217.25924,344.59029q5.784,4.01537,5.7859,7.79321,0,2.24431-2.71591,6.25807l-25.50528,38.14v22.55308a34.26164,34.26164,0,0,1-.177,4.074,9.47,9.47,0,0,1-1.12184,3.12923,5.187,5.187,0,0,1-3.18808,2.47964,25.94746,25.94746,0,0,1-12.04435,0,5.12282,5.12282,0,0,1-3.18816-2.53888,9.99725,9.99725,0,0,1-1.12183-3.18816,35.76174,35.76174,0,0,1-.177-4.19174V396.78154l-25.50527-38.14q-2.71749-4.01295-2.71592-6.25807,0-3.77784,5.90408-7.79321,4.4861-2.95014,7.43914-2.95226a4.9842,4.9842,0,0,1,2.893.94486,10.405,10.405,0,0,1,2.12556,1.88923q.76677.94646,2.06625,2.9518l18.30242,29.28417,18.30233-29.28417q1.29787-2.00612,2.06671-2.9518a10.2995,10.2995,0,0,1,2.12511-1.88923,5.15331,5.15331,0,0,1,3.01112-.94486Q212.53517,341.638,217.25924,344.59029Z" style="fill:#a176d1"/><path d="M245.95183,365.84443a32.36751,32.36751,0,0,1,22.78937,9.1514q9.8,9.152,9.8006,23.32085a30.67824,30.67824,0,0,1-5.0773,17.41647,31.832,31.832,0,0,1-12.33956,11.21765,33.23249,33.23249,0,0,1-14.93683,3.60147,32.38672,32.38672,0,0,1-15.23243-3.83736,33.48505,33.48505,0,0,1-12.33948-11.33583,29.75717,29.75717,0,0,1-5.01852-16.94461q0-14.16933,9.91878-23.37978T245.95183,365.84443Zm-7.67511,41.03292a12.53764,12.53764,0,0,0,7.67511,2.893,12.87407,12.87407,0,0,0,7.79322-2.95181q3.8966-2.95015,3.8966-8.73808,0-5.784-3.66025-8.61992a12.99171,12.99171,0,0,0-8.14774-2.83408,12.07234,12.07234,0,0,0-7.67511,2.95226q-3.66153,2.95257-3.66025,8.61991Q234.4983,403.985,238.27672,406.87735Z" style="fill:#a176d1"/><path d="M313.84691,429.2534a25.09128,25.09128,0,0,1-19.77785-9.03284q-7.85427-9.03325-7.853-22.022V377.53432a34.13453,34.13453,0,0,1,.1775-4.13249,10.19439,10.19439,0,0,1,1.063-3.07037,4.9503,4.9503,0,0,1,3.12922-2.47964,20.62826,20.62826,0,0,1,6.02133-.70852,18.37193,18.37193,0,0,1,5.07776.59035,9.40023,9.40023,0,0,1,3.07036,1.417,4.94565,4.94565,0,0,1,1.59362,2.42078,10.65554,10.65554,0,0,1,.59035,2.71584q.05851,1.12371.0597,3.36519v20.66418a10.08335,10.08335,0,0,0,2.77439,7.55694,11.51839,11.51839,0,0,0,14.99615-.1181,9.9469,9.9469,0,0,0,2.89287-7.43884V377.41615a34.17874,34.17874,0,0,1,.1775-4.07364,9.53926,9.53926,0,0,1,1.063-3.07,5.00676,5.00676,0,0,1,3.12837-2.42071,20.63855,20.63855,0,0,1,6.02218-.70852,20.14649,20.14649,0,0,1,5.90438.70852,4.957,4.957,0,0,1,3.1293,2.47964,10.12724,10.12724,0,0,1,1.06213,3.12923,34.19968,34.19968,0,0,1,.17742,4.07363v41.8003a32.81679,32.81679,0,0,1-.17742,3.95585,8.40291,8.40291,0,0,1-1.12106,3.01113,5.31606,5.31606,0,0,1-3.18893,2.36146,20.12387,20.12387,0,0,1-5.90354.70844,19.61553,19.61553,0,0,1-5.78589-.70844,5.138,5.138,0,0,1-3.07037-2.12519,7.84985,7.84985,0,0,1-1.00327-2.36184,13.90207,13.90207,0,0,1-.17742-2.47956,8.42082,8.42082,0,0,1-.64928.82662q-.41535.47328-1.771,1.77111a20.03892,20.03892,0,0,1-2.893,2.30253,18.03371,18.03371,0,0,1-3.897,1.83043A14.55118,14.55118,0,0,1,313.84691,429.2534Z" style="fill:#a176d1"/><path d="M277.72972,283.56364c-1.47867-4.28422-5.07053-7.75829-9.43661-7.46692-3.14984.21058-5.48691,2.52187-7.282,5.33919-1.04375-3.88114-2.79362-7.67919-5.84314-10.00595-4.939-3.76927-8.99829-.76968-10.92959,2.0524-7.51247,10.97953,3.2434,30.67159,18.25525,40.19691C262.05528,313.62,279.986,290.10337,277.72972,283.56364Z" style="fill:#ff3262"/><path d="M258.81888,397.77057c1.01135-4.3503,3.68864-11.77444.88186-16.30956a6.57644,6.57644,0,0,0-9.06515-2.24159A12.52759,12.52759,0,0,0,246.139,383.612c-.97527-3.487-2.8077-6.57074-6.3637-6.98459-5.67534-.66044-9.40014,6.18258-10.39811,9.93709-3.0659,11.533,20.32589,33.40058,21.01718,32.96935a.92314.92314,0,0,0,.90279-1.34242A91.374,91.374,0,0,0,258.81888,397.77057Z" style="fill:#822a5d"/><path d="M213.13921,163.05047c-2.146-2.17189-5.0933-2.669-7.20071-.16157-1.52022,1.80927-1.94392,4.637-1.92884,7.52731-1.79489-2.1238-3.91884-3.81736-6.21759-3.81005-3.72334.01108-4.791,4.22321-4.8431,7.18863-.202,11.53686,11.65927,19.42817,22.34528,18.06313C215.05366,192.04865,216.41454,166.36625,213.13921,163.05047Z" style="fill:#575fcf"/><path d="M269.62822,86.56987c-.43786-7.65349-5.267-15.53318-13.9101-11.03584-5.45375,2.83755-8.99806,8.62491-11.19887,15.03062-1.83774-7.29788-5.52585-13.68489-13.07124-15.64852-12.27362-3.19415-22.32135,6.78872-25.33609,17.86434-4.09849,15.05647.9001,33.12284,6.329,47.27552a115.70224,115.70224,0,0,0,11.083,21.63613c2.6075,4.006,16.09067,17.74877,15.82246,14.21531-.66743-8.794,7.67519-18.03482,11.71875-25.36426a186.78762,186.78762,0,0,0,9.60456-19.85332C266.24248,116.97926,270.48346,101.50894,269.62822,86.56987Z" style="fill:#575fcf"/><path d="M319.55287,116.87332c-.6092-4.84779-4.782-8.40033-9.653-7.01845a15.13035,15.13035,0,0,0-7.45522,5.46876c.03416-4.36293-.72491-8.43995-3.33688-11.07754-5.5043-5.55809-13.27689-1.22378-17.58912,3.52053-13.93456,15.33014,1.87,70.59483,3.07491,67.953,5.78235-12.68138,15.86678-21.40577,23.51258-32.80722C312.47449,136.39827,320.62054,125.37351,319.55287,116.87332Z" style="fill:#575fcf"/><path d="M338.59319,160.59922c2.72584-2.72761,7.99533-7.04876,8.33047-11.24742.23828-2.982-1.87444-4.94-4.81848-4.77009a11.53125,11.53125,0,0,0-5.00851,1.53438c1.02558-2.81324,1.303-5.64156-.8087-7.18287-3.37-2.45993-9.04307,1.08175-11.47685,3.392-7.47622,7.09621-2.693,30.8016-2.03909,30.73868a.85218.85218,0,0,0,1.22463-.63436A93.701,93.701,0,0,0,338.59319,160.59922Z" style="fill:#575fcf"/><path d="M249.66356,232.2004c-1.08121-8.7851-1.43767-21.1355-8.10635-27.88551-4.36816-4.42194-10.369-5.43437-14.65924-.32953-3.09545,3.68356-3.95808,9.44006-3.92677,15.32483-3.65417-4.32384-7.97824-7.77151-12.65808-7.75758-7.58071.02331-9.75421,8.599-9.85992,14.63585C200.04151,249.67556,251.41982,246.476,249.66356,232.2004Z" style="fill:#575fcf"/><path d="M172.73157,140.79628c-3.68072-5.86714-10.93559-10.00064-15.8177-2.6763-3.08068,4.62207-3.36542,10.74671-2.31745,16.77558-4.63313-4.97581-10.33465-8.42532-17.16267-6.69253-11.10609,2.81755-14.711,15.09587-12.273,25.176,3.31417,13.7029,15.14064,25.82564,25.60237,34.66344a104.53393,104.53393,0,0,0,18.19678,12.2984c3.809,2.03493,20.46737,7.04,18.71588,4.35992-4.35862-6.66984-1.78027-17.61843-1.77227-25.18159a168.7666,168.7666,0,0,0-1.0452-19.898C183.29724,166.34149,179.91543,152.24852,172.73157,140.79628Z" style="fill:#575fcf"/><path d="M374.11442,209.56768c2.34346-5.2334.32314-11.33967-5.40444-12.92259-3.42759-.9468-7.15378-.402-10.81133.94249,2.69367-4.35554,4.41693-8.90743,3.40427-13.145-2.13349-8.92928-12.57152-9.31836-19.78793-7.18794-23.31969,6.885-41.14625,71.94878-38.328,70.03318,13.52871-9.196,28.96-11.801,43.57779-18.57777C355.1161,224.8385,370.00562,218.74439,374.11442,209.56768Z" style="fill:#575fcf"/><path d="M292.60131,216.08887c2.874-5.55562,8.89619-14.82511,7.35151-21.47979-1.09745-4.72693-5.3255-6.71555-9.79253-5.00706a18.71731,18.71731,0,0,0-6.98882,4.83364c.20319-4.85264-.75761-9.3616-4.77924-10.70647-6.41809-2.14673-13.44777,6.11534-16.07482,10.88242-8.07034,14.64393,10.97221,48.93846,11.95179,48.51984C275.22077,243.38558,287.9177,225.14248,292.60131,216.08887Z" style="fill:#575fcf"/><path d="M209.55528,160.5289c-2.14595-2.172-5.0933-2.66906-7.20063-.16157-1.52022,1.8092-1.944,4.637-1.92892,7.52723-1.79488-2.12381-3.91876-3.81728-6.21752-3.81005-3.72341.01108-4.79108,4.22321-4.84317,7.18871-.202,11.53679,11.65927,19.42809,22.34528,18.06306C211.46981,189.527,212.83061,163.84462,209.55528,160.5289Z" style="fill:#ff3262"/><path d="M266.04429,84.04823c-.43786-7.65349-5.267-15.53318-13.9101-11.03584-5.45367,2.83763-8.998,8.62491-11.19887,15.03062-1.83774-7.29781-5.52585-13.6849-13.07124-15.64851-12.27355-3.1941-22.32135,6.7887-25.33609,17.86432-4.09849,15.05648.90018,33.12291,6.32908,47.27552A115.695,115.695,0,0,0,219.94,159.17048c2.60758,4.006,16.09067,17.74876,15.82246,14.21531-.66743-8.794,7.67527-18.03476,11.71875-25.36425a186.77612,186.77612,0,0,0,9.60456-19.85333C262.65863,114.45761,266.89953,98.98729,266.04429,84.04823Z" style="fill:#ff6592"/><path d="M315.96894,114.35167c-.6092-4.84771-4.78193-8.40026-9.653-7.01846a15.13067,15.13067,0,0,0-7.4553,5.46876c.03416-4.36291-.72491-8.43994-3.33688-11.07754-5.50423-5.558-13.27689-1.22369-17.589,3.52054-13.93464,15.33022,1.8699,70.59483,3.07483,67.953,5.78243-12.68139,15.86678-21.40578,23.51258-32.80724C308.89056,133.87671,317.03661,122.85187,315.96894,114.35167Z" style="fill:#ff3262"/><path d="M335.00926,158.07757c2.72584-2.7276,7.99533-7.04875,8.33047-11.24743.23828-2.982-1.87436-4.94-4.81847-4.77007a11.53207,11.53207,0,0,0-5.00844,1.53437c1.02551-2.81324,1.30287-5.64156-.8087-7.18286-3.37012-2.45986-9.04314,1.08175-11.47693,3.392-7.47615,7.09623-2.693,30.80169-2.039,30.73868a.85212.85212,0,0,0,1.22455-.63435A93.69719,93.69719,0,0,0,335.00926,158.07757Z" style="fill:#822a5d"/><path d="M246.07963,229.67875c-1.08113-8.785-1.43767-21.13542-8.10635-27.88551-4.36816-4.42193-10.36894-5.43436-14.65916-.32952-3.09545,3.68364-3.95816,9.44007-3.92685,15.32483-3.65409-4.32384-7.97824-7.77151-12.65808-7.75759-7.5807.02331-9.75421,8.59906-9.85992,14.63585C196.45758,247.15393,247.83589,243.9543,246.07963,229.67875Z" style="fill:#ff6592"/><path d="M169.14764,138.27463c-3.68072-5.86713-10.93559-10.00055-15.8177-2.6762-3.08067,4.622-3.36535,10.74663-2.31745,16.77549-4.63306-4.97581-10.33457-8.42525-17.16267-6.69253-11.106,2.81754-14.71094,15.09586-12.27293,25.17606,3.31419,13.70282,15.14057,25.82564,25.60232,34.66336a104.53538,104.53538,0,0,0,18.19677,12.2984c3.809,2.03494,20.46737,7.04,18.716,4.36-4.35862-6.66984-1.78027-17.61851-1.77235-25.18168a168.76632,168.76632,0,0,0-1.0452-19.89795C179.71331,163.81985,176.3315,149.72686,169.14764,138.27463Z" style="fill:#822a5d"/><path d="M370.53049,207.04611c2.34346-5.2334.32314-11.33974-5.40444-12.92267-3.42759-.94672-7.15377-.402-10.81133.94249,2.69368-4.35554,4.41693-8.90742,3.40435-13.145-2.13357-8.92928-12.5716-9.31835-19.788-7.18794-23.31969,6.885-41.14624,71.94879-38.32793,70.03317,13.52864-9.196,28.95995-11.801,43.57773-18.57768C351.53225,222.31686,366.42169,216.22275,370.53049,207.04611Z" style="fill:#ff3262"/><path d="M289.01746,213.56731c2.87394-5.55562,8.89619-14.8252,7.35143-21.47989-1.09737-4.72683-5.32542-6.71553-9.79245-5.007a18.71786,18.71786,0,0,0-6.9889,4.83363c.2032-4.85264-.75753-9.36159-4.77916-10.70647-6.4181-2.14665-13.44785,6.11542-16.0749,10.88243-8.07027,14.64393,10.97229,48.93846,11.95179,48.51984C271.63684,240.864,284.33377,222.62084,289.01746,213.56731Z" style="fill:#d80043"/></g></svg>